<svg width="128" height="128" viewBox="0 0 128 128" fill="none" xmlns="http://www.w3.org/2000/svg">
<g clip-path="url(#clip0)">
<rect width="128" height="128" fill="#CA4A1F"/>
<path d="M38.84 40.04C38.9333 40.8613 39.2693 41.524 39.848 42.028C40.4267 42.532 41.1827 42.784 42.116 42.784C42.9 42.784 43.5347 42.6533 44.02 42.392C44.524 42.1307 44.888 41.8133 45.112 41.44C45.336 41.0667 45.448 40.7027 45.448 40.348C45.448 39.5267 45.2427 38.8453 44.832 38.304C44.44 37.744 43.9453 37.3053 43.348 36.988C42.7693 36.652 41.976 36.2693 40.968 35.84C39.8667 35.3733 38.9893 34.9533 38.336 34.58C37.7013 34.188 37.1507 33.6653 36.684 33.012C36.236 32.34 36.012 31.4907 36.012 30.464C36.012 29.6427 36.2453 28.868 36.712 28.14C37.1787 27.3933 37.888 26.7867 38.84 26.32C39.792 25.8533 40.9587 25.62 42.34 25.62C43.2547 25.62 44.0107 25.6853 44.608 25.816C45.2053 25.9467 45.812 26.1613 46.428 26.46L45.448 29.372C44.776 29.148 44.2253 28.9893 43.796 28.896C43.3853 28.8027 42.9093 28.756 42.368 28.756C41.304 28.756 40.52 28.9427 40.016 29.316C39.512 29.6893 39.288 30.1653 39.344 30.744C39.4 31.2107 39.68 31.612 40.184 31.948C40.7067 32.284 41.5093 32.6947 42.592 33.18C43.8613 33.74 44.916 34.272 45.756 34.776C46.596 35.28 47.3147 35.9707 47.912 36.848C48.528 37.7253 48.836 38.7987 48.836 40.068C48.836 41.7293 48.2853 43.1013 47.184 44.184C46.0827 45.2667 44.4027 45.808 42.144 45.808C40.7627 45.808 39.5773 45.556 38.588 45.052C37.6173 44.5293 36.8707 43.8667 36.348 43.064C35.844 42.2427 35.5733 41.3933 35.536 40.516L38.84 40.04ZM53.0789 29.008H49.0469V25.9H60.3029V29.008H56.1589V45.5H53.0789V29.008ZM63.7565 28.924L62.0205 28.868V25.9H66.8365V45.5H63.7565V28.924ZM81.0458 44.856C79.3845 45.472 77.8352 45.78 76.3978 45.78C74.7738 45.78 73.4578 45.3507 72.4498 44.492C71.4418 43.6333 70.9378 42.2613 70.9378 40.376V31.388C70.9378 29.9693 71.1338 28.896 71.5258 28.168C71.9365 27.44 72.5525 26.824 73.3738 26.32C74.1952 25.8533 75.2032 25.62 76.3978 25.62C77.8538 25.62 79.1698 25.928 80.3458 26.544L79.4778 29.344C78.6192 29.0267 77.6765 28.868 76.6498 28.868C75.8658 28.868 75.2312 29.0827 74.7458 29.512C74.2605 29.9413 74.0178 30.4827 74.0178 31.136V40.32C74.0178 41.888 74.8952 42.672 76.6498 42.672C77.2098 42.672 77.7698 42.616 78.3298 42.504C78.8898 42.3733 79.6365 42.1867 80.5698 41.944L81.0458 44.856ZM86.8331 37.716L86.6371 37.996V45.5H83.3331V25.872H86.6371V32.62L91.1731 25.872H94.8691L88.6531 34.972L95.9611 45.5H92.1251L86.8331 37.716ZM104.619 43.68C105.235 43.6053 105.739 43.372 106.131 42.98C106.523 42.588 106.719 41.8973 106.719 40.908V39.34C105.786 39.8067 104.806 40.04 103.779 40.04C102.51 40.04 101.39 39.7973 100.419 39.312C99.4488 38.808 98.6928 38.0987 98.1514 37.184C97.6288 36.2507 97.3674 35.168 97.3674 33.936V25.9H100.447V33.656C100.447 34.8133 100.727 35.6627 101.287 36.204C101.847 36.7453 102.678 37.016 103.779 37.016C104.395 37.016 104.899 36.9507 105.291 36.82C105.702 36.6893 105.982 36.5587 106.131 36.428C106.299 36.2973 106.495 36.12 106.719 35.896V25.9H109.799V41.132C109.799 42.6067 109.482 43.7547 108.847 44.576C108.213 45.3973 107.13 45.8827 105.599 46.032L104.619 43.68ZM38.84 69.04C38.9333 69.8613 39.2693 70.524 39.848 71.028C40.4267 71.532 41.1827 71.784 42.116 71.784C42.9 71.784 43.5347 71.6533 44.02 71.392C44.524 71.1307 44.888 70.8133 45.112 70.44C45.336 70.0667 45.448 69.7027 45.448 69.348C45.448 68.5267 45.2427 67.8453 44.832 67.304C44.44 66.744 43.9453 66.3053 43.348 65.988C42.7693 65.652 41.976 65.2693 40.968 64.84C39.8667 64.3733 38.9893 63.9533 38.336 63.58C37.7013 63.188 37.1507 62.6653 36.684 62.012C36.236 61.34 36.012 60.4907 36.012 59.464C36.012 58.6427 36.2453 57.868 36.712 57.14C37.1787 56.3933 37.888 55.7867 38.84 55.32C39.792 54.8533 40.9587 54.62 42.34 54.62C43.2547 54.62 44.0107 54.6853 44.608 54.816C45.2053 54.9467 45.812 55.1613 46.428 55.46L45.448 58.372C44.776 58.148 44.2253 57.9893 43.796 57.896C43.3853 57.8027 42.9093 57.756 42.368 57.756C41.304 57.756 40.52 57.9427 40.016 58.316C39.512 58.6893 39.288 59.1653 39.344 59.744C39.4 60.2107 39.68 60.612 40.184 60.948C40.7067 61.284 41.5093 61.6947 42.592 62.18C43.8613 62.74 44.916 63.272 45.756 63.776C46.596 64.28 47.3147 64.9707 47.912 65.848C48.528 66.7253 48.836 67.7987 48.836 69.068C48.836 70.7293 48.2853 72.1013 47.184 73.184C46.0827 74.2667 44.4027 74.808 42.144 74.808C40.7627 74.808 39.5773 74.556 38.588 74.052C37.6173 73.5293 36.8707 72.8667 36.348 72.064C35.844 71.2427 35.5733 70.3933 35.536 69.516L38.84 69.04ZM63.7193 69.32C63.7193 71.2053 63.1406 72.596 61.9833 73.492C60.8446 74.3693 59.4726 74.808 57.8673 74.808C56.8593 74.808 55.9073 74.6307 55.0113 74.276C54.1153 73.9027 53.378 73.3053 52.7993 72.484C52.2393 71.6627 51.9593 70.608 51.9593 69.32V60.304C51.9593 58.3813 52.482 56.9253 53.5273 55.936C54.5913 54.9467 56.0473 54.452 57.8953 54.452C59.7433 54.452 61.1713 54.9747 62.1793 56.02C63.206 57.0653 63.7193 58.5027 63.7193 60.332V69.32ZM60.6393 61.34C60.6393 60.556 60.574 59.912 60.4433 59.408C60.3126 58.904 60.042 58.512 59.6313 58.232C59.2206 57.9333 58.6233 57.784 57.8393 57.784C57.0553 57.784 56.458 57.924 56.0473 58.204C55.6366 58.484 55.366 58.876 55.2353 59.38C55.1046 59.8653 55.0393 60.5093 55.0393 61.312V68.788C55.0393 69.684 55.2633 70.3933 55.7113 70.916C56.178 71.42 56.8873 71.672 57.8393 71.672C58.7166 71.672 59.398 71.4013 59.8833 70.86C60.3873 70.3187 60.6393 69.6093 60.6393 68.732V61.34ZM77.5185 73.856C75.8572 74.472 74.3078 74.78 72.8705 74.78C71.2465 74.78 69.9305 74.3507 68.9225 73.492C67.9145 72.6333 67.4105 71.2613 67.4105 69.376V60.388C67.4105 58.9693 67.6065 57.896 67.9985 57.168C68.4092 56.44 69.0252 55.824 69.8465 55.32C70.6678 54.8533 71.6758 54.62 72.8705 54.62C74.3265 54.62 75.6425 54.928 76.8185 55.544L75.9505 58.344C75.0918 58.0267 74.1492 57.868 73.1225 57.868C72.3385 57.868 71.7038 58.0827 71.2185 58.512C70.7332 58.9413 70.4905 59.4827 70.4905 60.136V69.32C70.4905 70.888 71.3678 71.672 73.1225 71.672C73.6825 71.672 74.2425 71.616 74.8025 71.504C75.3625 71.3733 76.1092 71.1867 77.0425 70.944L77.5185 73.856ZM81.0378 57.924L79.3018 57.868V54.9H84.1178V74.5H81.0378V57.924ZM96.0311 69.376H91.5231L90.4311 74.5H86.9591L91.5511 54.9H95.8911L100.847 74.5H97.1791L96.0311 69.376ZM92.2511 66.1H95.3031L93.7071 60.052L92.2511 66.1ZM103.321 54.9H106.401V71.672H113.429V74.5H103.321V54.9ZM37.944 86.924L36.208 86.868V83.9H41.024V103.5H37.944V86.924ZM55.2333 102.856C53.572 103.472 52.0227 103.78 50.5853 103.78C48.9613 103.78 47.6453 103.351 46.6373 102.492C45.6293 101.633 45.1253 100.261 45.1253 98.376V89.388C45.1253 87.9693 45.3213 86.896 45.7133 86.168C46.124 85.44 46.74 84.824 47.5613 84.32C48.3827 83.8533 49.3907 83.62 50.5853 83.62C52.0413 83.62 53.3573 83.928 54.5333 84.544L53.6653 87.344C52.8067 87.0267 51.864 86.868 50.8373 86.868C50.0533 86.868 49.4187 87.0827 48.9333 87.512C48.448 87.9413 48.2053 88.4827 48.2053 89.136V98.32C48.2053 99.888 49.0827 100.672 50.8373 100.672C51.3973 100.672 51.9573 100.616 52.5173 100.504C53.0773 100.373 53.824 100.187 54.7573 99.944L55.2333 102.856ZM68.8326 98.32C68.8326 100.205 68.2539 101.596 67.0966 102.492C65.9579 103.369 64.5859 103.808 62.9806 103.808C61.9726 103.808 61.0206 103.631 60.1246 103.276C59.2286 102.903 58.4913 102.305 57.9126 101.484C57.3526 100.663 57.0726 99.608 57.0726 98.32V89.304C57.0726 87.3813 57.5953 85.9253 58.6406 84.936C59.7046 83.9467 61.1606 83.452 63.0086 83.452C64.8566 83.452 66.2846 83.9747 67.2926 85.02C68.3193 86.0653 68.8326 87.5027 68.8326 89.332V98.32ZM65.7526 90.34C65.7526 89.556 65.6873 88.912 65.5566 88.408C65.4259 87.904 65.1553 87.512 64.7446 87.232C64.3339 86.9333 63.7366 86.784 62.9526 86.784C62.1686 86.784 61.5713 86.924 61.1606 87.204C60.7499 87.484 60.4793 87.876 60.3486 88.38C60.2179 88.8653 60.1526 89.5093 60.1526 90.312V97.788C60.1526 98.684 60.3766 99.3933 60.8246 99.916C61.2913 100.42 62.0006 100.672 62.9526 100.672C63.8299 100.672 64.5113 100.401 64.9966 99.86C65.5006 99.3187 65.7526 98.6093 65.7526 97.732V90.34ZM75.9398 90.256V103.5H72.8598V83.9H75.9398L83.5278 97.06V83.9H86.6358V103.5H83.5278L75.9398 90.256ZM93.2267 98.04C93.3201 98.8613 93.6561 99.524 94.2347 100.028C94.8134 100.532 95.5694 100.784 96.5027 100.784C97.2867 100.784 97.9214 100.653 98.4067 100.392C98.9107 100.131 99.2747 99.8133 99.4987 99.44C99.7227 99.0667 99.8347 98.7027 99.8347 98.348C99.8347 97.5267 99.6294 96.8453 99.2187 96.304C98.8267 95.744 98.3321 95.3053 97.7347 94.988C97.1561 94.652 96.3627 94.2693 95.3547 93.84C94.2534 93.3733 93.3761 92.9533 92.7227 92.58C92.0881 92.188 91.5374 91.6653 91.0707 91.012C90.6227 90.34 90.3987 89.4907 90.3987 88.464C90.3987 87.6427 90.6321 86.868 91.0987 86.14C91.5654 85.3933 92.2747 84.7867 93.2267 84.32C94.1787 83.8533 95.3454 83.62 96.7267 83.62C97.6414 83.62 98.3974 83.6853 98.9947 83.816C99.5921 83.9467 100.199 84.1613 100.815 84.46L99.8347 87.372C99.1627 87.148 98.6121 86.9893 98.1827 86.896C97.7721 86.8027 97.2961 86.756 96.7547 86.756C95.6907 86.756 94.9067 86.9427 94.4027 87.316C93.8987 87.6893 93.6747 88.1653 93.7307 88.744C93.7867 89.2107 94.0667 89.612 94.5707 89.948C95.0934 90.284 95.8961 90.6947 96.9787 91.18C98.2481 91.74 99.3027 92.272 100.143 92.776C100.983 93.28 101.701 93.9707 102.299 94.848C102.915 95.7253 103.223 96.7987 103.223 98.068C103.223 99.7293 102.672 101.101 101.571 102.184C100.469 103.267 98.7894 103.808 96.5307 103.808C95.1494 103.808 93.9641 103.556 92.9747 103.052C92.0041 102.529 91.2574 101.867 90.7347 101.064C90.2307 100.243 89.9601 99.3933 89.9227 98.516L93.2267 98.04Z" fill="white"/>
<mask id="mask0" mask-type="alpha" maskUnits="userSpaceOnUse" x="-6" y="10" width="30" height="109">
<path d="M-6 15C-6 12.2386 -3.76142 10 -1 10H18.7059C21.4673 10 23.7059 12.2386 23.7059 15V113.5C23.7059 116.261 21.4673 118.5 18.7059 118.5H-0.999998C-3.76142 118.5 -6 116.261 -6 113.5V15Z" fill="#1E73BE"/>
</mask>
<g mask="url(#mask0)">
<rect x="-1.19853" y="10" width="24.9044" height="27.3785" fill="#1E73BE"/>
<rect x="-1.19853" y="36.6179" width="24.9044" height="27.3785" fill="#FCEEBE"/>
<rect x="-1.19853" y="63.9966" width="24.9044" height="27.3785" fill="#00BDE2"/>
<rect x="-1.19853" y="91.1216" width="24.9044" height="27.3785" fill="#6ED06C"/>
</g>
</g>
<defs>
<clipPath id="clip0">
<rect width="128" height="128" fill="white"/>
</clipPath>
</defs>
</svg>
